<?xml version="1.0" encoding="utf-8"?>
<!-- Generator: Adobe Illustrator 24.2.3, SVG Export Plug-In . SVG Version: 6.00 Build 0)  -->
<svg version="1.1" id="Layer_1" xmlns="http://www.w3.org/2000/svg" xmlns:xlink="http://www.w3.org/1999/xlink" x="0px" y="0px"
	 viewBox="0 0 200 200" style="enable-background:new 0 0 200 200;" xml:space="preserve">
<style type="text/css">
	.st0{fill:#3D8C95;}
	.st1{fill:#225675;}
</style>
<g>
	<polygon class="st0" points="179.94,159.58 135.7,99.28 135.72,99.26 132.99,95.54 132.97,95.57 132.95,95.54 129.7,98.8 
		129.71,98.82 104.31,124.23 104.33,124.25 104.31,124.28 104.31,135.01 109.59,135.01 109.59,125.39 132.44,102.54 176.27,162.27 	
		"/>
	<path class="st1" d="M90.82,156.67c-31.67,0-57.35-25.68-57.35-57.35s25.68-57.35,57.35-57.35c15.15,0,28.93,5.88,39.18,15.48
		c0.91-1.9,1.88-3.75,2.89-5.53c-11.12-9.71-25.66-15.59-41.58-15.59c-34.93,0-63.26,28.32-63.26,63.26s28.32,63.26,63.26,63.26
		c14.52,0,27.9-4.9,38.58-13.13c-0.94-1.98-1.82-4.01-2.63-6.11C117.36,151.77,104.66,156.67,90.82,156.67z"/>
	<path class="st0" d="M109.59,66.12h-5.28v39v5.92v0.65l0.42-0.42c0.02,0.01,0.03,0.02,0.05,0.03
		c23.73-23.75,47.45-47.5,71.18-71.26l-3.29-3.29l-63.08,63.08V66.12z"/>
</g>
</svg>
